<svg width="59" height="59" viewBox="0 0 59 59" fill="none" xmlns="http://www.w3.org/2000/svg">
<g clip-path="url(#clip0_21_96)">
<path d="M42.645 10.5439C41.3933 9.82189 40.0116 9.35356 38.5789 9.16567C37.1462 8.97777 35.6905 9.074 34.295 9.44884C32.8995 9.82369 31.5915 10.4698 30.4458 11.3503C29.3001 12.2308 28.3391 13.3284 27.6176 14.5804L26.1202 17.1778L23.5228 15.6803C20.9948 14.2228 17.9913 13.8293 15.1731 14.5863C12.355 15.3433 9.95293 17.1887 8.49546 19.7168C7.03798 22.2448 6.64445 25.2482 7.40143 28.0664C8.15842 30.8846 10.0039 33.2866 12.5319 34.7441L34.1931 47.2324L46.6814 25.5712C47.4034 24.3196 47.8718 22.9379 48.0597 21.5052C48.2476 20.0725 48.1513 18.6168 47.7765 17.2213C47.4016 15.8258 46.7555 14.5178 45.875 13.3721C44.9945 12.2264 43.897 11.2653 42.645 10.5439Z" stroke="#1E1E1E" stroke-width="4" stroke-linecap="round" stroke-linejoin="round"/>
</g>
<defs>
<clipPath id="clip0_21_96">
<rect width="48" height="48" fill="white" transform="translate(0 12.4519) rotate(-15.0353)"/>
</clipPath>
</defs>
</svg>
