<svg width="29" height="40" viewBox="0 0 29 40" fill="none" xmlns="http://www.w3.org/2000/svg">
<path d="M19.8354 39.6287C19.3774 39.7182 18.9593 39.6641 18.581 39.4663C18.2027 39.2685 17.8902 38.9729 17.6436 38.5796C16.664 36.869 15.5433 35.3049 14.2813 33.8873C13.0521 32.4633 11.3923 30.8347 9.30195 29.0015C7.21161 27.1683 5.45123 25.3726 4.02083 23.6143C2.62313 21.8495 1.65261 19.5768 1.10927 16.7961C0.361367 12.9685 1.05347 9.47081 3.18558 6.30315C5.34402 3.09637 8.33704 1.11904 12.1647 0.37114C15.9923 -0.376759 19.4931 0.331703 22.6672 2.49653C25.8676 4.62225 27.8417 7.59892 28.5896 11.4265C29.1713 14.4036 29.0846 17.0017 28.3295 19.2211C27.6008 21.4013 26.6889 23.6003 25.5939 25.8181C24.2875 28.5188 23.3297 30.7437 22.7206 32.493C22.1377 34.2032 21.7212 35.9828 21.4712 37.8317C21.3971 38.3217 21.2057 38.7327 20.897 39.0647C20.6146 39.3576 20.2607 39.5456 19.8354 39.6287ZM18.4643 32.6114C18.8031 31.3905 19.2105 30.1731 19.6866 28.9593C20.1954 27.739 20.961 26.095 21.9834 24.0273C23.0322 21.9204 23.848 20.0118 24.4308 18.3017C25.04 16.5524 25.1177 14.5163 24.6638 12.1936C24.1333 9.47829 22.7175 7.36048 20.4166 5.84018C18.142 4.28076 15.6471 3.76634 12.9317 4.2969C10.2164 4.82746 8.08225 6.2464 6.52923 8.55371C5.00254 10.8219 4.50447 13.3137 5.03503 16.029C5.48888 18.3517 6.31087 20.212 7.501 21.6097C8.71745 22.9683 10.208 24.4262 11.9727 25.9833C13.6983 27.5141 15.0101 28.7522 15.908 29.6976C16.8387 30.6365 17.6908 31.6078 18.4643 32.6114ZM15.8083 19.0185C17.1823 18.75 18.251 18.0487 19.0143 16.9146C19.7777 15.7805 20.0251 14.5265 19.7566 13.1525C19.4882 11.7784 18.7869 10.7098 17.6528 9.94641C16.5187 9.18306 15.2646 8.93562 13.8906 9.2041C12.5166 9.47258 11.4479 10.1739 10.6845 11.308C9.92119 12.4421 9.67375 13.6961 9.94223 15.0701C10.2107 16.4442 10.912 17.5128 12.0461 18.2762C13.1802 19.0395 14.4343 19.287 15.8083 19.0185Z" fill="#1D1B20"/>
</svg>
